<?xml version="1.0" encoding="UTF-8"?>
<svg version="1.1" xmlns="http://www.w3.org/2000/svg" width="64" height="64">
<path d="M0 0 C3.3 0 6.6 0 10 0 C11.60725635 3.21451269 11.05748185 6.43612536 11 10 C13.832168 10.33448259 13.832168 10.33448259 17 10 C18.37310707 8.70766393 19.71034824 7.37562854 21 6 C25 6 25 6 26.484375 7.3125 C27.65625 8.875 28.828125 10.4375 30 12 C28.92598892 14.91517292 28.22189824 16.77810176 26 19 C25.83318891 22.08347826 25.83318891 22.08347826 26 25 C26.63808594 24.98839844 27.27617188 24.97679688 27.93359375 24.96484375 C28.75988281 24.95582031 29.58617187 24.94679688 30.4375 24.9375 C31.26121094 24.92589844 32.08492187 24.91429688 32.93359375 24.90234375 C35 25 35 25 36 26 C36.09823937 27.66429051 36.12973631 29.33281931 36.125 31 C36.12886719 32.36125 36.12886719 32.36125 36.1328125 33.75 C36 36 36 36 35 37 C33.48071962 37.07179964 31.95832518 37.08392007 30.4375 37.0625 C29.61121094 37.05347656 28.78492188 37.04445312 27.93359375 37.03515625 C27.29550781 37.02355469 26.65742187 37.01195312 26 37 C25.63369844 40.93774177 25.69766797 42.56539771 28 45.875 C28.66 46.57625 29.32 47.2775 30 48 C28.62845496 50.95409701 27.01136276 53.44008376 25 56 C20.34074074 55.37037037 20.34074074 55.37037037 18.5625 53.4375 C16.96161036 51.66047134 16.96161036 51.66047134 13.8125 51.8125 C12.884375 51.874375 11.95625 51.93625 11 52 C11.020625 53.27875 11.04125 54.5575 11.0625 55.875 C11.125 59.75 11.125 59.75 10 62 C6.7 62 3.4 62 0 62 C-1.60725635 58.78548731 -1.05748185 55.56387464 -1 52 C-3.832168 51.66551741 -3.832168 51.66551741 -7 52 C-8.37310707 53.29233607 -9.71034824 54.62437146 -11 56 C-15 56 -15 56 -16.484375 54.6875 C-17.65625 53.125 -18.828125 51.5625 -20 50 C-18.92598892 47.08482708 -18.22189824 45.22189824 -16 43 C-15.83318891 39.91652174 -15.83318891 39.91652174 -16 37 C-16.63808594 37.01160156 -17.27617187 37.02320313 -17.93359375 37.03515625 C-18.75988281 37.04417969 -19.58617187 37.05320313 -20.4375 37.0625 C-21.26121094 37.07410156 -22.08492187 37.08570313 -22.93359375 37.09765625 C-25 37 -25 37 -26 36 C-26.09823937 34.33570949 -26.12973631 32.66718069 -26.125 31 C-26.12757812 30.0925 -26.13015625 29.185 -26.1328125 28.25 C-26 26 -26 26 -25 25 C-23.48071962 24.92820036 -21.95832518 24.91607993 -20.4375 24.9375 C-19.61121094 24.94652344 -18.78492188 24.95554687 -17.93359375 24.96484375 C-16.97646484 24.98224609 -16.97646484 24.98224609 -16 25 C-15.63369844 21.06225823 -15.69766797 19.43460229 -18 16.125 C-18.66 15.42375 -19.32 14.7225 -20 14 C-18.62845496 11.04590299 -17.01136276 8.55991624 -15 6 C-10.34074074 6.62962963 -10.34074074 6.62962963 -8.5625 8.5625 C-6.96161036 10.33952866 -6.96161036 10.33952866 -3.8125 10.1875 C-2.884375 10.125625 -1.95625 10.06375 -1 10 C-1.020625 8.72125 -1.04125 7.4425 -1.0625 6.125 C-1.125 2.25 -1.125 2.25 0 0 Z M1.75 27.9375 C0.88375 28.9584375 0.88375 28.9584375 0 30 C1.05474665 33.69460876 1.05474665 33.69460876 3.875 36.0625 C6.22616748 36.21665306 6.22616748 36.21665306 8.25 34.0625 C8.8275 33.381875 9.405 32.70125 10 32 C8.94525335 28.30539124 8.94525335 28.30539124 6.125 25.9375 C3.77383252 25.78334694 3.77383252 25.78334694 1.75 27.9375 Z " fill="#81AEC0" transform="translate(27,1)"/>
<path d="M0 0 C0.33 1.32 0.66 2.64 1 4 C0.41992188 4.08636719 -0.16015625 4.17273438 -0.7578125 4.26171875 C-6.60830427 5.31403493 -9.8728963 6.67636755 -14 11 C-16.17947139 14.60740092 -17.38767625 17.83619849 -18 22 C-18.66 22 -19.32 22 -20 22 C-20.33682654 16.49849983 -19.7182867 12.82276673 -17 8 C-12.14801485 2.77662833 -7.31605468 -0.41806027 0 0 Z " fill="#91CCDC" transform="translate(33,12)"/>
<path d="M0 0 C2 1.5 2 1.5 4 4 C4.48094866 8.32853794 4.49542334 10.82662893 2.8125 14.8125 C-0.31753562 18.5901292 -2.72528454 19.86813288 -7.625 20.375 C-11 20 -11 20 -12.9375 18.5 C-13.288125 18.005 -13.63875 17.51 -14 17 C-12.783125 17.061875 -11.56625 17.12375 -10.3125 17.1875 C-6.4014614 17.18057781 -4.09327165 16.54740018 -1 14 C1.33636652 10.77358909 1.24371023 7.89936374 1 4 C0.56058477 1.73433657 0.56058477 1.73433657 0 0 Z " fill="#3C8092" transform="translate(41,25)"/>
<path d="M0 0 C1.2065625 0.0309375 1.2065625 0.0309375 2.4375 0.0625 C2.4375 1.0525 2.4375 2.0425 2.4375 3.0625 C1.2928125 3.4646875 1.2928125 3.4646875 0.125 3.875 C-2.52165172 5.04445076 -3.85805616 5.76150082 -5.5625 8.0625 C-6.28447162 10.66861077 -6.28447162 10.66861077 -6.5625 13.0625 C-7.2225 13.0625 -7.8825 13.0625 -8.5625 13.0625 C-8.875 9.875 -8.875 9.875 -8.5625 6.0625 C-6.125 3.1875 -6.125 3.1875 -3.5625 1.0625 C-2.5625 0.0625 -2.5625 0.0625 0 0 Z " fill="#B0DCE3" transform="translate(30.5625,20.9375)"/>
</svg>
